<?xml version="1.0" encoding="UTF-8" standalone="no"?>
<svg xmlns="http://www.w3.org/2000/svg" version="1.0" width="900.000000pt" height="1134.000000pt" viewBox="0 0 900.000000 1134.000000" preserveAspectRatio="xMidYMid meet">
  <g transform="translate(0.000000,1134.000000) scale(0.100000,-0.100000)" fill="#fa036b" stroke="none">
    <path d="M776 10051 c-3 -5 -6 -296 -6 -647 l-1 -639 1496 -3 1495 -2 0 650 0 650 -1489 0 c-849 0 -1492 -4 -1495 -9z"></path>
    <path d="M4517 10053 c-4 -3 -7 -459 -7 -1012 0 -553 -4 -1012 -8 -1019 -7 -10 -374 -12 -1865 -12 -1026 0 -1858 -4 -1861 -9 -3 -5 -6 -294 -6 -642 l-1 -634 1868 -5 1868 -5 2 -1014 c2 -558 4 -1016 6 -1017 2 -2 291 -4 643 -4 l639 -1 5 1018 5 1018 545 0 545 0 3 -1017 2 -1018 646 -2 c355 -2 648 -1 650 1 2 2 4 1214 4 2693 l0 2688 -647 -2 -648 -3 -3 -1015 c-1 -571 -6 -1018 -11 -1023 -10 -10 -1065 -12 -1081 -2 -6 4 -10 370 -10 1026 l0 1019 -638 0 c-351 0 -642 -3 -645 -7z"></path>
    <path d="M780 5305 l0 -645 1490 0 c820 0 1490 4 1490 8 0 4 1 294 3 645 l2 637 -1492 0 -1493 0 0 -645z"></path>
    <path d="M7430 4344 c-8 -2 -49 -8 -90 -13 -41 -5 -91 -14 -110 -21 -19 -7 -39 -15 -45 -17 -5 -2 -23 -12 -40 -23 -16 -11 -37 -23 -44 -27 -23 -10 -110 -105 -117 -125 -3 -10 -10 -18 -15 -18 -5 0 -9 -8 -9 -18 0 -10 -8 -29 -17 -42 -26 -37 -26 -293 0 -333 9 -14 17 -33 17 -41 0 -21 99 -118 141 -137 88 -40 106 -48 129 -52 14 -3 39 -10 55 -15 46 -16 115 -33 171 -42 28 -4 61 -13 72 -19 11 -6 36 -11 54 -11 18 0 46 -7 62 -15 15 -8 36 -15 45 -15 10 0 26 -7 37 -15 10 -8 26 -15 35 -15 21 0 62 -46 83 -93 38 -83 -22 -191 -132 -236 -53 -22 -321 -22 -376 0 -48 20 -126 87 -126 109 0 8 -6 25 -14 36 -8 11 -16 33 -18 48 l-3 28 -140 0 -140 0 4 -63 c2 -35 9 -73 17 -84 8 -10 14 -28 14 -38 0 -47 129 -183 207 -216 11 -6 24 -15 28 -20 3 -6 16 -11 29 -11 12 0 31 -7 42 -15 10 -8 33 -15 50 -15 17 0 53 -7 80 -15 58 -17 251 -20 304 -4 19 5 55 14 80 19 56 10 117 33 132 48 7 7 18 12 25 12 18 0 33 12 109 88 35 35 64 71 64 80 0 8 6 23 13 31 19 22 37 90 44 165 6 71 -20 207 -43 227 -8 6 -14 17 -14 24 0 19 -101 115 -120 115 -10 0 -23 7 -30 15 -7 8 -19 15 -27 15 -8 0 -27 6 -41 14 -29 14 -101 34 -167 45 -22 4 -50 13 -62 19 -12 7 -39 12 -60 12 -21 1 -49 7 -63 15 -14 8 -38 14 -55 15 -16 0 -43 7 -59 15 -15 8 -37 15 -47 15 -47 0 -127 60 -151 113 -22 46 -22 64 -3 101 8 15 15 34 15 40 0 20 58 69 105 90 112 48 234 44 352 -12 38 -17 103 -80 103 -97 0 -7 7 -18 15 -25 8 -7 15 -27 15 -44 l0 -31 140 0 c86 0 140 4 141 10 5 57 -12 136 -42 185 -5 8 -13 25 -19 38 -17 40 -136 151 -180 168 -8 3 -19 8 -25 10 -5 2 -17 8 -25 13 -64 37 -293 72 -360 55z"></path>
    <path d="M782 3533 l3 -768 572 -3 572 -4 3 124 c2 67 2 128 0 134 -3 9 -115 12 -419 12 -330 1 -418 4 -425 14 -4 7 -7 101 -5 208 l2 195 375 3 375 2 0 125 0 125 -375 2 -375 3 0 170 0 170 408 3 407 2 0 125 0 125 -560 0 -560 0 2 -767z"></path>
    <path d="M2410 3535 c0 -421 3 -765 8 -766 4 -1 64 -2 135 -3 l127 -2 0 622 c0 612 4 694 31 667 6 -6 14 -37 19 -69 4 -33 12 -72 19 -87 6 -16 11 -45 11 -65 1 -20 7 -48 15 -62 8 -14 14 -39 15 -56 0 -17 7 -51 15 -74 8 -23 15 -55 15 -70 0 -15 7 -44 15 -63 8 -20 15 -53 15 -72 0 -20 5 -46 12 -58 7 -12 15 -44 19 -72 11 -74 29 -156 41 -190 6 -16 13 -52 17 -80 4 -27 10 -56 15 -63 4 -7 12 -37 16 -65 5 -29 14 -72 21 -97 l11 -46 140 1 c138 0 140 0 153 25 8 14 14 39 15 56 0 17 7 51 15 74 8 23 15 55 15 70 0 15 7 44 15 63 8 20 15 52 15 71 0 20 6 50 14 68 14 33 30 100 45 194 5 28 14 61 20 72 6 11 11 37 11 57 0 19 7 52 15 72 8 19 15 49 15 65 0 16 7 45 15 65 8 19 15 48 15 64 0 16 6 46 14 66 8 21 17 64 19 95 4 37 14 69 27 89 34 47 45 25 31 -66 -17 -113 -15 -1195 2 -1196 6 -1 69 -2 139 -3 l128 -1 0 758 c0 416 0 760 0 765 0 4 -98 8 -218 10 l-218 2 -12 -33 c-7 -18 -12 -49 -12 -68 -1 -19 -7 -45 -15 -59 -8 -14 -14 -38 -15 -53 0 -31 -23 -134 -46 -208 -8 -26 -14 -62 -14 -80 -1 -19 -7 -45 -15 -59 -8 -14 -14 -40 -15 -58 0 -18 -7 -49 -15 -69 -8 -19 -15 -49 -15 -65 0 -16 -7 -45 -15 -65 -8 -19 -15 -49 -15 -65 0 -16 -7 -45 -15 -65 -8 -19 -15 -49 -15 -65 0 -16 -7 -45 -15 -65 -8 -19 -15 -52 -15 -73 0 -32 -23 -72 -34 -59 -10 13 -46 140 -46 165 -1 16 -7 40 -15 54 -8 14 -15 43 -15 65 0 22 -7 51 -15 65 -8 14 -14 40 -15 58 0 18 -7 49 -15 69 -8 19 -15 50 -15 68 0 18 -7 49 -15 68 -8 20 -15 49 -15 66 0 16 -7 42 -15 57 -8 16 -15 43 -15 60 0 17 -7 51 -15 74 -8 23 -15 57 -15 74 -1 17 -7 42 -15 56 -8 14 -14 43 -15 66 0 22 -7 49 -15 60 -8 10 -15 34 -15 52 l0 32 -225 0 -225 0 0 -765z"></path>
    <path d="M4413 3533 l2 -768 130 -1 c72 0 138 1 148 3 16 4 17 27 17 303 0 248 2 300 14 307 18 10 418 -1 466 -13 87 -22 116 -73 125 -224 14 -240 25 -343 36 -361 11 -18 326 -21 333 -3 3 7 -2 18 -10 25 -42 35 -49 68 -55 274 -6 196 -17 271 -47 305 -38 45 -79 80 -93 80 -47 0 -47 67 0 76 45 9 113 76 136 134 4 8 14 30 23 49 25 51 25 280 -1 308 -9 11 -17 27 -17 35 0 9 -7 21 -15 28 -8 7 -15 18 -15 24 0 14 -105 114 -133 127 -12 5 -29 13 -37 18 -8 5 -45 16 -82 25 -56 13 -134 16 -497 16 l-430 0 2 -767z m843 502 c46 -29 84 -67 84 -85 0 -9 5 -21 11 -27 5 -5 13 -36 16 -66 11 -109 -45 -201 -141 -231 -42 -14 -91 -16 -281 -14 l-230 3 -3 210 c-2 169 0 212 11 220 9 6 109 10 259 9 218 -1 247 -3 274 -19z"></path>
    <path d="M6144 4278 c3 -13 6 -358 6 -768 l0 -745 140 0 c77 0 140 2 140 5 1 3 2 348 3 768 l2 762 -149 0 -148 0 6 -22z"></path>
    <path d="M2895 2565 c-177 -24 -273 -65 -379 -165 -66 -63 -146 -169 -146 -194 0 -7 -7 -21 -15 -32 -8 -10 -15 -25 -15 -32 0 -8 -6 -28 -14 -45 -37 -86 -60 -403 -36 -497 7 -25 16 -67 20 -95 9 -58 31 -120 48 -137 7 -7 12 -20 12 -29 0 -23 83 -144 129 -189 47 -46 116 -100 129 -100 5 0 15 -7 22 -15 7 -8 21 -15 30 -15 10 0 31 -6 47 -14 115 -59 444 -59 578 0 94 41 125 57 125 65 0 5 6 9 13 9 17 0 155 144 167 175 5 14 14 25 20 25 5 0 10 8 10 18 0 10 5 23 12 30 15 15 37 74 49 131 5 24 13 49 19 56 5 6 12 81 16 166 8 207 -11 372 -52 451 -8 14 -14 35 -14 45 0 10 -5 24 -11 30 -13 13 -33 47 -49 81 -14 31 -167 182 -184 182 -7 0 -19 7 -26 15 -7 8 -20 15 -30 15 -10 0 -23 7 -30 15 -7 8 -23 15 -37 15 -13 0 -36 6 -51 14 -15 7 -65 16 -112 20 -47 4 -98 8 -115 10 -16 2 -75 -2 -130 -9z m220 -253 c54 -9 78 -20 140 -67 50 -38 75 -62 75 -74 0 -5 7 -11 15 -15 8 -3 15 -12 15 -19 0 -8 7 -20 15 -27 8 -7 15 -23 15 -35 0 -12 6 -28 14 -34 7 -6 16 -30 20 -54 3 -23 10 -64 15 -92 13 -66 13 -208 0 -265 -6 -25 -14 -63 -18 -85 -4 -22 -12 -49 -18 -60 -5 -11 -19 -38 -29 -60 -20 -42 -120 -155 -137 -155 -6 0 -18 -6 -26 -13 -30 -25 -123 -47 -200 -47 -76 0 -168 23 -194 49 -6 6 -16 11 -21 11 -36 0 -176 177 -176 223 0 7 -8 29 -17 48 -26 50 -25 408 0 456 9 18 17 41 17 51 0 11 7 25 15 32 8 7 15 21 15 32 0 25 143 168 168 168 11 0 25 7 32 15 7 8 29 15 49 16 20 1 47 5 61 10 25 8 62 6 155 -9z"></path>
    <path d="M6000 2565 c-104 -12 -138 -21 -215 -57 -58 -27 -72 -38 -124 -89 -47 -48 -67 -73 -77 -99 -3 -8 -10 -24 -16 -35 -7 -11 -17 -56 -24 -100 -15 -89 -2 -236 23 -266 7 -8 13 -22 13 -31 0 -35 140 -148 184 -148 7 0 19 -7 26 -15 7 -8 23 -15 36 -15 13 0 38 -6 56 -14 41 -17 117 -36 184 -46 28 -4 61 -13 72 -19 11 -6 36 -11 54 -11 18 -1 44 -7 58 -15 14 -8 37 -14 51 -15 15 0 32 -7 39 -15 7 -8 20 -15 29 -15 41 -1 101 -87 101 -144 -1 -76 -57 -155 -130 -185 -81 -32 -311 -35 -374 -5 -16 8 -34 14 -39 14 -10 0 -29 15 -67 55 -30 31 -60 95 -60 127 l0 28 -145 0 -144 0 6 -67 c3 -38 12 -78 19 -90 8 -12 14 -27 14 -33 0 -27 77 -124 130 -165 32 -25 63 -45 68 -45 5 0 15 -7 22 -15 7 -8 21 -15 32 -15 11 0 32 -6 46 -14 79 -41 367 -60 466 -32 30 9 64 16 76 16 12 0 34 6 48 14 15 7 45 22 67 32 51 25 57 29 119 91 67 68 76 79 76 96 0 8 7 20 15 27 8 7 15 23 15 37 0 13 7 40 15 60 8 19 15 62 15 95 0 32 -7 75 -15 95 -8 19 -15 48 -15 63 0 16 -7 30 -15 34 -8 3 -15 12 -15 20 0 24 -94 111 -146 135 -112 51 -148 63 -244 81 -56 11 -120 27 -181 46 -26 8 -57 14 -70 14 -13 0 -37 7 -53 15 -15 8 -37 15 -47 15 -24 0 -78 28 -105 55 -25 24 -54 85 -54 113 0 51 49 127 103 158 95 56 264 58 377 6 44 -21 110 -81 110 -102 0 -8 7 -24 15 -34 8 -11 15 -29 15 -41 0 -20 5 -21 140 -23 l140 -3 0 39 c0 42 -20 111 -53 181 -21 46 -114 146 -150 162 -12 5 -30 13 -39 19 -10 5 -26 15 -35 20 -10 6 -22 12 -28 14 -5 1 -26 9 -45 16 -19 7 -69 16 -110 21 -41 5 -88 10 -105 12 -16 3 -77 -1 -135 -8z"></path>
    <path d="M779 2526 c-2 -2 -3 -349 -1 -770 l2 -767 143 3 142 3 2 339 c2 261 6 341 15 348 22 13 602 10 616 -4 9 -9 12 -100 12 -350 l0 -338 145 0 145 0 0 770 -1 771 -145 -3 -145 -3 -2 -295 -2 -295 -309 -3 c-170 -1 -313 1 -318 6 -4 4 -9 139 -10 300 l-2 292 -142 0 c-77 0 -143 -2 -145 -4z"></path>
    <path d="M4020 1997 c0 -441 3 -543 15 -590 8 -32 15 -69 15 -82 0 -13 7 -36 14 -52 8 -15 18 -35 21 -43 27 -68 115 -158 190 -194 22 -10 52 -25 67 -32 14 -8 37 -14 50 -14 12 0 45 -7 72 -15 67 -20 275 -20 342 0 27 8 59 15 71 15 12 0 34 7 50 14 15 8 35 18 43 21 8 3 29 14 45 25 17 11 36 23 44 27 48 22 141 161 141 208 0 11 8 32 18 45 15 23 17 65 20 470 1 245 3 509 5 588 l2 142 -150 0 -150 0 0 -513 c-1 -528 -4 -583 -43 -667 -18 -40 -90 -110 -113 -110 -8 0 -20 -5 -27 -12 -7 -7 -51 -14 -101 -16 -96 -5 -189 16 -222 49 -9 9 -20 18 -25 20 -14 6 -54 66 -54 81 0 7 -7 22 -15 32 -13 17 -15 103 -15 578 l0 558 -155 0 -155 0 0 -533z"></path>
    <path d="M7027 1763 l3 -768 572 0 573 0 0 125 0 125 -417 3 -418 2 -5 23 c-3 12 -4 108 -3 212 l3 190 370 2 370 2 3 126 3 125 -376 0 -375 0 2 173 3 172 402 3 402 2 3 121 c2 66 1 123 -1 125 -2 2 -254 4 -560 4 l-556 0 2 -767z"></path>
  </g>
</svg>
